<svg xmlns="http://www.w3.org/2000/svg" viewBox="0 0 360 60.82"><title>Michael Smith</title><path d="M224.64 0l-20.12 60.82h-6.9L217.75 0zM45.22 32.22l-3.84 19.11H34l3.73-18.65a12.46 12.46 0 0 0 .23-2 3.56 3.56 0 0 0-3.62-3.84c-2 0-5.31 1-6.22 5.88l-3.7 18.49h-7.35l3.73-18.65a12.46 12.46 0 0 0 .23-2 3.56 3.56 0 0 0-3.62-3.84c-2 0-5.31 1-6.33 5.88L7.35 51.1H0l6.11-30.64h7l-.57 2.94a11.27 11.27 0 0 1 8-3.28 7.71 7.71 0 0 1 6.67 4c2.15-2.26 4.75-4 9.61-4 4.07 0 8.48 2.71 8.48 8.48a9.15 9.15 0 0 1-.08 3.62zm11.31 19.11h-7.35l6.11-30.64h7.35zm7.12-35.61h-7.46l1.13-6.11h7.57zm21.71 13.67a4.94 4.94 0 0 0-4.18-2.49 6 6 0 0 0-4.41 1.92A14.88 14.88 0 0 0 73.49 36a22.3 22.3 0 0 0-.45 4c0 3.28 1.58 5.2 4.41 5.2 2 0 3.62-.9 5.31-2.6l4.07 5.2a15 15 0 0 1-10.06 3.84c-5.88 0-11-3.73-11-11a35.4 35.4 0 0 1 .45-4.75c2.26-12.44 9.38-15.6 15.6-15.6a11 11 0 0 1 9 4.18zm34.25 2.83l-3.84 19.11h-7.35l3.73-18.65a12.46 12.46 0 0 0 .23-2 3.56 3.56 0 0 0-3.62-3.84c-2 0-5.31 1-6.33 5.88L98.7 51.21h-7.35l8.37-41.83h7.35l-2.71 13.68a10.73 10.73 0 0 1 7.57-2.71c3.73 0 8 2.37 8 8.48a15.67 15.67 0 0 1-.32 3.39zm30.19-.56l-4 19.78h-7l.57-2.71a10.14 10.14 0 0 1-7.46 3.05c-5.31 0-8.82-3.39-8.82-8a10.18 10.18 0 0 1 2.71-7.24c2.26-2.26 5.43-3.17 8.93-3.17h7.35l.45-1.81a7.63 7.63 0 0 0 .23-1.58c0-2-1.47-3.28-4.52-3.28a8.14 8.14 0 0 0-6.56 2.83L128 24.65c2.49-2.49 5.65-4.07 11.31-4.07 5.09 0 10.85 2 10.85 8.48-.16.67-.25 1.69-.36 2.6zm-14.25 6.56c-3.28 0-5.2 2-5.2 4.75 0 1.7 1.24 2.83 3.84 2.83a6.54 6.54 0 0 0 4.75-1.92 7.19 7.19 0 0 0 1.81-3.88l.34-1.81zm44.55-.01h-18.32a13.85 13.85 0 0 0-.23 2.15c0 3.05 1.7 5.09 5.2 5.09a10.19 10.19 0 0 0 7.35-3.17l3.84 4.86a16.83 16.83 0 0 1-12 4.52c-5.31 0-11.31-2.71-11.31-10.74 0-10.29 5.09-20.58 15.6-20.58 6.56 0 10.85 4.3 10.85 11a31.81 31.81 0 0 1-.98 6.87zm-10.29-11.87c-3.17 0-5.65 2-7 7H174a12.46 12.46 0 0 0 .23-2c-.12-3.19-1.82-5-4.42-5zm20.92 24.76l2.37-7.1a4.9 4.9 0 0 1-.11-.57 4.81 4.81 0 0 1 .23-1.24l6.55-32.69h-7.35l-6.56 32.67a8.87 8.87 0 0 0-.23 2.49 6.19 6.19 0 0 0 5.1 6.44zm101.75-19.56l-3.84 19.11h-7.35L285 32a12.46 12.46 0 0 0 .23-2 3.56 3.56 0 0 0-3.62-3.84c-2 0-5.31 1-6.22 5.88l-3.73 18.54h-7.35l3.73-18.65a12.46 12.46 0 0 0 .23-2 3.56 3.56 0 0 0-3.61-3.93c-2 0-5.31 1-6.33 5.88l-3.73 18.54h-7.35l6.11-30.64h7l-.57 2.94a11.27 11.27 0 0 1 8-3.28 7.71 7.71 0 0 1 6.67 4c2.15-2.26 4.75-4 9.61-4 4.07 0 8.48 2.71 8.48 8.48a12 12 0 0 1-.07 3.62zm11.19 19.11h-7.35l6.1-30.65h7.35zm7.24-35.73h-7.46l1.13-6.11h7.57zm18.76 11.54h-5.09l-3.05 15a4.24 4.24 0 0 0-.11 1.13c0 1.24.79 1.92 2.37 1.92h2.6l-1.24 6.11h-3.73c-4.18 0-7.46-2.49-7.46-6.67a13.34 13.34 0 0 1 .23-2.49l3.05-15h-3.17l1.13-5.65h3.17l1.81-9h7.35l-1.81 9h5.09zm29.96 5.08l-3.84 19.11h-7.35L352.17 32a12.46 12.46 0 0 0 .23-2 3.56 3.56 0 0 0-3.62-3.84c-2 0-5.31 1-6.33 5.88l-3.73 18.54h-7.35l8.37-41.83h7.35l-2.71 13.68a10.73 10.73 0 0 1 7.57-2.71c3.73 0 8 2.37 8 8.48a10.81 10.81 0 0 1-.32 3.34zm-123.57.79l-4-.68c-1.92-.34-2.83-1-2.83-2.26 0-1.92 1.7-3.73 5.31-3.73a8.4 8.4 0 0 1 5.88 2.15l5-4.41c-2.6-2.71-5.88-3.73-10.18-3.73a15.94 15.94 0 0 0-7.57 1.7l-4.41 13.45a9.41 9.41 0 0 0 6 3.05l4 .68c1.81.34 2.83.9 2.83 2.49 0 1.81-2 3.84-6.22 3.84-3.5 0-5.54-1.13-7-2.94L220 44.43l-1.13 3.39c2.6 2.15 5.88 3.39 10.51 3.39 4 0 8.14-.9 10.63-3.39a10 10 0 0 0 3.28-7.46c.12-4.36-1.8-7.23-7.23-8.03z"/></svg>