<svg xmlns="http://www.w3.org/2000/svg" viewBox="0 0 30 30"><title>codepen</title><path d="M30 10.21v-.47l-.05-.08V9.6l-.06-.07-.05-.05-.07-.06h-.06L15.72.22a1.29 1.29 0 0 0-1.43 0L.57 9.36H.51l-.07.06H.39l-.08.18v.06l-.05.08v.53a1.24 1.24 0 0 0 0 .17v9.14a1.24 1.24 0 0 0 0 .17v.53l.05.08v.06l.06.07h.05l.07.06h.06l13.71 9.14a1.29 1.29 0 0 0 1.43 0l13.71-9.14h.06l.07-.06h.05l.06-.07v-.06l.05-.08v-.53a1.36 1.36 0 0 0 0-.17v-9.15a1.37 1.37 0 0 0 0-.17zm-15 7.84l-4.56-3L15 12l4.56 3zm-1.29-8.34l-5.59 3.74-4.51-3 10.1-6.75zM5.8 15l-3.22 2.16v-4.32zm2.32 1.55l5.59 3.74v6l-10.1-6.72zm8.17 3.74l5.59-3.74 4.51 3-10.1 6.75v-6zM24.2 15l3.23-2.16v4.31zm-2.32-1.55l-5.59-3.74v-6l10.1 6.73z" fill="#bfbfbf"/></svg>