<svg xmlns="http://www.w3.org/2000/svg" viewBox="0 0 30 30"><title>codepen</title><path d="M30,10.21l0-.11,0-.06,0-.09,0-.06,0-.09,0-.06-.05-.08,0-.06-.06-.07-.05-.05-.07-.06-.06,0,0,0L15.72.22a1.29,1.29,0,0,0-1.43,0L.57,9.36l0,0-.06,0-.07.06-.05,0L.31,9.6l0,.06-.05.08,0,.06,0,.09,0,.06,0,.09,0,.06s0,.07,0,.11v.06a1.24,1.24,0,0,0,0,.17v9.14a1.24,1.24,0,0,0,0,.17v.06l0,.11,0,.06,0,.09,0,.06,0,.09,0,.06.05.08,0,.06.06.07.05,0,.07.06.06,0,0,0,13.71,9.14a1.29,1.29,0,0,0,1.43,0l13.71-9.14,0,0,.06,0,.07-.06.05,0,.06-.07,0-.06.05-.08,0-.06,0-.09,0-.06,0-.09,0-.06s0-.07,0-.11v-.06a1.36,1.36,0,0,0,0-.17V10.43a1.37,1.37,0,0,0,0-.17ZM15,18.05l-4.56-3L15,12l4.56,3ZM13.71,9.71,8.12,13.45l-4.51-3L13.71,3.7ZM5.8,15,2.58,17.16V12.84Zm2.32,1.55,5.59,3.74v6L3.61,19.57Zm8.17,3.74,5.59-3.74,4.51,3L16.29,26.3v-6ZM24.2,15l3.23-2.16v4.31Zm-2.32-1.55L16.29,9.71v-6l10.1,6.73Z" style="fill:#bfbfbf"/></svg>