<svg xmlns="http://www.w3.org/2000/svg" viewBox="0 0 30.76 30"><title>github</title><path d="M15.38,0a15.38,15.38,0,0,0-4.86,30c.77.14,1-.33,1-.74s0-1.33,0-2.62c-4.28.93-5.18-2.06-5.18-2.06a4.07,4.07,0,0,0-1.71-2.25c-1.4-1,.11-.94.11-.94A3.23,3.23,0,0,1,7.12,23a3.28,3.28,0,0,0,4.48,1.28,3.28,3.28,0,0,1,1-2.06c-3.41-.39-7-1.71-7-7.6a6,6,0,0,1,1.58-4.13A5.53,5.53,0,0,1,7.3,6.38S8.59,6,11.53,8a14.58,14.58,0,0,1,7.7,0c2.94-2,4.23-1.58,4.23-1.58a5.52,5.52,0,0,1,.15,4.07,5.94,5.94,0,0,1,1.58,4.13c0,5.91-3.6,7.21-7,7.59a3.67,3.67,0,0,1,1,2.85c0,2.06,0,3.71,0,4.22s.28.89,1.06.74A15.38,15.38,0,0,0,15.38,0" style="fill:#bfbfbf;fill-rule:evenodd"/></svg>